<svg viewBox="0 0 800 500" xmlns="http://www.w3.org/2000/svg" style="background:radial-gradient(circle at 20% 30%,#030712,#000)">
  <defs>
    <linearGradient id="g1" x1="0%" y1="0%" x2="100%" y2="0%">
      <stop offset="0%" stop-color="#0074FF"/>
      <stop offset="100%" stop-color="#4D9BFF"/>
    </linearGradient>
  </defs>
  <rect x="0" y="0" width="800" height="500" fill="none"/>
  <rect x="25" y="20" width="750" height="55" rx="12" fill="rgba(5,12,24,.7)" stroke="rgba(0,116,255,.4)" stroke-width="1"/>
  <text x="45" y="55" fill="#eef2ff" font-family="monospace" font-size="14" font-weight="bold">AYMAN ELMASRY</text>
  <text x="175" y="55" fill="#8db7ff" font-family="monospace" font-size="11">AEL Digital Studio</text>
  <rect x="620" y="30" width="140" height="35" rx="40" fill="rgba(16,185,129,.1)" stroke="#10b981" stroke-width="1"/>
  <text x="635" y="53" fill="#10b981" font-family="monospace" font-size="10">● Connected</text>

  <text x="400" y="105" fill="#fff" font-family="monospace" font-size="26" font-weight="bold" text-anchor="middle">AEL AI Chat Interface</text>
  <text x="400" y="128" fill="#9ab3e6" font-family="monospace" font-size="12" text-anchor="middle">Unified chat for OpenAI GPT-4, GPT-3.5, and Anthropic Claude — with conversation history</text>

  <rect x="50" y="145" width="700" height="40" rx="10" fill="rgba(5,12,24,.7)" stroke="rgba(0,116,255,.25)" stroke-width="1"/>
  <rect x="65" y="153" width="180" height="24" rx="6" fill="rgba(1,5,14,.7)" stroke="rgba(255,255,255,.1)" stroke-width="1"/>
  <text x="85" y="169" fill="#64748b" font-family="monospace" font-size="10">GPT-4 Turbo</text>
  <rect x="260" y="153" width="100" height="24" rx="6" fill="rgba(1,5,14,.7)" stroke="rgba(255,255,255,.1)" stroke-width="1"/>
  <text x="280" y="169" fill="#64748b" font-family="monospace" font-size="10">Claude 3</text>
  <rect x="375" y="153" width="90" height="24" rx="6" fill="rgba(1,5,14,.7)" stroke="rgba(255,255,255,.1)" stroke-width="1"/>
  <text x="390" y="169" fill="#64748b" font-family="monospace" font-size="10">Demo</text>
  <rect x="630" y="155" width="100" height="20" rx="4" fill="rgba(0,116,255,.1)"/>
  <text x="680" y="169" fill="#a5d6ff" font-family="monospace" font-size="9" text-anchor="middle">⚙️ Settings</text>

  <rect x="50" y="200" width="700" height="220" rx="16" fill="rgba(5,12,24,.5)" stroke="rgba(0,116,255,.2)" stroke-width="1"/>

  <rect x="70" y="220" width="250" height="42" rx="10" fill="rgba(0,116,255,.12)" stroke="rgba(0,116,255,.25)" stroke-width="1"/>
  <circle cx="85" cy="241" r="12" fill="rgba(0,116,255,.3)"/>
  <text x="85" y="246" fill="#0074FF" font-family="monospace" font-size="10" text-anchor="middle">U</text>
  <text x="105" y="236" fill="#a5d6ff" font-family="monospace" font-size="9">You</text>
  <text x="105" y="252" fill="#9ab3e6" font-family="monospace" font-size="11">Design a dashboard for a cybersecurity platform</text>

  <rect x="350" y="280" width="380" height="55" rx="10" fill="rgba(16,185,129,.08)" stroke="rgba(16,185,129,.2)" stroke-width="1"/>
  <circle cx="365" cy="301" r="12" fill="rgba(16,185,129,.3)"/>
  <text x="365" y="306" fill="#10b981" font-family="monospace" font-size="9" text-anchor="middle">AI</text>
  <text x="385" y="296" fill="#34d399" font-family="monospace" font-size="9">GPT-4 Turbo</text>
  <text x="385" y="314" fill="#9ab3e6" font-family="monospace" font-size="11">I'll design a modern dashboard with real-time</text>
  <text x="385" y="328" fill="#9ab3e6" font-family="monospace" font-size="11">threat monitoring, incident metrics, and dark UI...</text>

  <rect x="70" y="355" width="200" height="42" rx="10" fill="rgba(0,116,255,.12)" stroke="rgba(0,116,255,.25)" stroke-width="1"/>
  <circle cx="85" cy="376" r="12" fill="rgba(0,116,255,.3)"/>
  <text x="85" y="381" fill="#0074FF" font-family="monospace" font-size="10" text-anchor="middle">U</text>
  <text x="105" y="370" fill="#a5d6ff" font-family="monospace" font-size="9">You</text>
  <text x="105" y="386" fill="#9ab3e6" font-family="monospace" font-size="11">Add user authentication flow</text>

  <rect x="50" y="435" width="700" height="40" rx="12" fill="rgba(5,12,24,.7)" stroke="rgba(0,116,255,.25)" stroke-width="1"/>
  <rect x="65" y="443" width="600" height="24" rx="6" fill="rgba(1,5,14,.7)" stroke="rgba(255,255,255,.1)" stroke-width="1"/>
  <text x="75" y="459" fill="#4a5a7a" font-family="monospace" font-size="11">Type your message here...</text>
  <rect x="680" y="443" width="50" height="24" rx="6" fill="url(#g1)"/>
  <text x="705" y="459" fill="#fff" font-family="monospace" font-size="11" text-anchor="middle">→</text>

  <rect x="50" y="455" width="700" height="20" rx="0" fill="none"/>
  <text x="400" y="488" fill="#64748b" font-family="monospace" font-size="10" text-anchor="middle">© 2026 Ayman Elmasry — AEL Digital Studio | AI Chat Interface v1.0</text>
</svg>
